<?xml version="1.0" encoding="utf-8"?>
<!-- Generator: Adobe Illustrator 22.0.1, SVG Export Plug-In . SVG Version: 6.00 Build 0)  -->
<svg version="1.1" xmlns="http://www.w3.org/2000/svg" xmlns:xlink="http://www.w3.org/1999/xlink" x="0px" y="0px"
	 viewBox="0 0 1417.3 1285.3" style="enable-background:new 0 0 1417.3 1285.3;" xml:space="preserve">
<style type="text/css">
	.st0{display:none;}
	.st1{display:inline;}
	.st2{fill:#FFFFFF;}
</style>
<g id="Calque_1">
</g>
<g id="Calque_3" class="st0">
	<rect x="-30" y="-32" class="st1" width="1475" height="1475"/>
</g>
<g id="Calque_2">
	<path class="st2" d="M708.2,72.2L454.9,215.9l253.7,145.8l252.8-145.5L708.2,72.2z M707.7,320L518.3,216l189.8-107.5l190,108.5
		L707.7,320z"/>
	<g>
		<polygon class="st2" points="961.9,216.3 708.8,361.8 708.7,654.6 740,636.2 740.7,380.7 930,271.4 929.4,528.1 961.1,510 		"/>
	</g>
	<polygon class="st2" points="708.7,654.6 962.5,801 1215.4,654 961.1,510 929.4,528.1 1151.8,655.2 962,764.8 740,635.8 	"/>
	<polygon class="st2" points="708.7,654.6 962.5,801 962.1,1093.3 707.2,944.5 707.4,907.9 930.7,1038 930.7,819 708.5,689.9 	"/>
	<g>
		<polygon class="st2" points="455.4,216.3 708.6,361.8 708.7,654.6 677.3,636.2 676.7,380.7 487.3,271.4 488,528.1 456.2,510 		"/>
	</g>
	<polygon class="st2" points="708.7,654.6 455.2,801.1 202.1,654.7 456.2,509.9 488,528.1 265.6,655.2 455.3,764.7 677.3,636.2 	"/>
	<polygon class="st2" points="708.7,654.6 455.2,801.1 455.2,1093.6 707.2,944.5 707.4,907.9 486.5,1038.4 486.6,819.3 708.5,689.9 
			"/>
	<path class="st2" d="M962.5,801l-0.5,292.3l251.3-146.7l2-292.6L962.5,801z M1180.9,928.1l-187.6,109.4l0.3-218.6l188.8-109.1
		L1180.9,928.1z"/>
	<path class="st2" d="M202.1,654.7l1.6,292.2l251.5,146.7l0-292.5L202.1,654.7z M234.6,710.1l188.8,109.1l0.3,218.6L236.1,928.4
		L234.6,710.1z"/>
	<g>
		<polygon class="st2" points="897.9,1093.3 851.8,1093.3 708.6,1173.6 568.5,1094.8 521.4,1094.8 709.2,1204.7 		"/>
	</g>
	<g>
		<polygon class="st2" points="994.6,271.7 1017.7,311.5 1160.1,393.3 1159.4,557.9 1183.1,598.7 1184.1,380 		"/>
	</g>
	<g>
		<polygon class="st2" points="422.6,271.7 399.5,311.5 257.1,393.3 257.8,557.9 234.1,598.7 233.1,380 		"/>
	</g>
</g>
</svg>
